<?xml version="1.0" encoding="UTF-8" standalone="no"?>
<!-- Created with Inkscape (http://www.inkscape.org/) -->

<svg
   version="1.1"
   id="svg2"
   xml:space="preserve"
   width="349.948"
   height="201.33333"
   viewBox="0 0 349.948 201.33333"
   xmlns="http://www.w3.org/2000/svg"
   xmlns:svg="http://www.w3.org/2000/svg"
   xmlns:rdf="http://www.w3.org/1999/02/22-rdf-syntax-ns#"
   xmlns:cc="http://creativecommons.org/ns#"
   xmlns:dc="http://purl.org/dc/elements/1.1/"><metadata
     id="metadata8"><rdf:RDF><cc:Work
         rdf:about=""><dc:format>image/svg+xml</dc:format><dc:type
           rdf:resource="http://purl.org/dc/dcmitype/StillImage" /><dc:title /></cc:Work></rdf:RDF></metadata><defs
     id="defs6" /><g
     id="g10"
     transform="matrix(1.3333333,0,0,-1.3333333,0,201.33333)"><rect
       style="opacity:1;fill:#ffffff;fill-opacity:1;fill-rule:evenodd;stroke:none;stroke-width:2.73192;stroke-linecap:round;stroke-linejoin:miter;stroke-miterlimit:4;stroke-dasharray:none;stroke-dashoffset:0;stroke-opacity:1"
       id="rect915"
       width="262.39325"
       height="151"
       x="2.220446e-16"
       y="-151"
       transform="scale(1,-1)" /><path
       d="m 8.40586,40.4102 -3.83984,9.8199 -1.88985,-3.75 V 40.4102 H 0.0511719 V 62.1289 H 2.67617 v -11.016 l 5.2418,11.016 H 10.6051 L 6.21094,53.1602 11.2461,40.4102 H 8.40586"
       style="fill:#3a4a54;fill-opacity:1;fill-rule:nonzero;stroke:none;stroke-width:0.1"
       id="path14" /><path
       d="m 18.473,53.5551 c -0.305,0.425 -0.821,0.6719 -1.4031,0.6719 -0.5777,0 -1.066,-0.2469 -1.3711,-0.6719 -0.5816,-0.793 -0.6398,-2.4102 -0.6398,-5.2461 0,-2.836 0.0582,-4.4539 0.6398,-5.2469 0.3051,-0.425 0.7934,-0.6711 1.3711,-0.6711 0.5821,0 1.0981,0.2461 1.4031,0.6711 0.5782,0.793 0.6129,2.4109 0.6129,5.2469 0,2.8359 -0.0347,4.4531 -0.6129,5.2461 z m 1.9532,-11.9262 c -0.7934,-1.0668 -1.9532,-1.4648 -3.3563,-1.4648 -1.4019,0 -2.5308,0.398 -3.3238,1.4648 -0.9762,1.25 -1.1602,3.4762 -1.1602,6.6801 0,3.2031 0.184,5.4289 1.1602,6.6789 0.793,1.0672 1.9219,1.4652 3.3238,1.4652 1.4031,0 2.5629,-0.398 3.3563,-1.4652 0.9758,-1.25 1.1289,-3.4758 1.1289,-6.6789 0,-3.2039 -0.1531,-5.4301 -1.1289,-6.6801"
       style="fill:#3a4a54;fill-opacity:1;fill-rule:nonzero;stroke:none;stroke-width:0.1"
       id="path16" /><path
       d="m 36.957,40.4102 v 11.6207 c 0,1.4339 -0.8242,2.164 -1.8629,2.164 -1.0351,0 -1.8601,-0.7301 -1.8601,-2.164 V 40.4102 h -2.468 v 11.6207 c 0,1.4339 -0.8558,2.164 -1.891,2.164 -1.0391,0 -1.8629,-0.7301 -1.8629,-2.164 V 40.4102 H 24.543 v 15.8007 h 2.3789 v -1.223 c 0.2152,0.3672 0.6402,0.766 0.9761,0.9769 0.4891,0.3051 1.0668,0.4883 1.7071,0.4883 1.223,0 2.3789,-0.6722 3.0199,-1.648 0.3359,0.4289 0.793,0.8859 1.25,1.1597 0.4879,0.3051 1.2191,0.4883 1.8012,0.4883 1.3707,0 2.1679,-0.398 2.8359,-1.1601 0.6399,-0.6989 0.9141,-1.5551 0.9141,-3.2621 V 40.4102 H 36.957"
       style="fill:#3a4a54;fill-opacity:1;fill-rule:nonzero;stroke:none;stroke-width:0.1"
       id="path18" /><path
       d="m 48.516,53.5859 c -0.3051,0.3942 -0.7621,0.6411 -1.3441,0.6411 -0.516,0 -0.9449,-0.1532 -1.2809,-0.4891 -0.3949,-0.3938 -0.6101,-0.9449 -0.6101,-1.7969 v -7.2301 c 0,-0.8558 0.2152,-1.4339 0.6101,-1.832 0.336,-0.3359 0.7649,-0.4879 1.2809,-0.4879 0.582,0 1.039,0.2461 1.3441,0.6399 0.5461,0.6722 0.6399,2.016 0.6399,5.2781 0,3.2648 -0.0938,4.6051 -0.6399,5.2769 z m 1.9801,-12.2308 c -0.6992,-0.8242 -1.4652,-1.191 -2.6211,-1.191 -0.641,0 -1.191,0.1519 -1.7109,0.457 -0.3051,0.2148 -0.6371,0.5508 -0.8832,0.8871 v -7.016 H 42.809 v 21.7187 h 2.4101 v -1.223 c 0.152,0.3359 0.6719,0.766 0.945,0.9769 0.5199,0.3364 1.1019,0.4883 1.7109,0.4883 1.098,0 1.9219,-0.3359 2.6211,-1.1601 1.0078,-1.1879 1.1598,-3.3239 1.1598,-6.984 0,-3.661 -0.152,-5.766 -1.1598,-6.9539"
       style="fill:#3a4a54;fill-opacity:1;fill-rule:nonzero;stroke:none;stroke-width:0.1"
       id="path20" /><path
       d="m 59.984,53.5859 c -0.3078,0.3942 -0.734,0.6411 -1.402,0.6411 -0.6718,0 -1.0699,-0.2469 -1.375,-0.6411 -0.4879,-0.5781 -0.609,-1.707 -0.609,-3.9961 h 3.9961 c 0,2.2891 -0.125,3.418 -0.6101,3.9961 z m -3.386,-5.8558 c 0,-2.5031 0.0899,-3.9641 0.6399,-4.668 0.2742,-0.398 0.7621,-0.6711 1.4031,-0.6711 0.55,0 1.007,0.152 1.402,0.6129 0.398,0.457 0.5191,1.066 0.5191,1.8281 h 2.4688 c -0.027,-1.4648 -0.3938,-2.5621 -1.277,-3.5082 -0.766,-0.7929 -1.832,-1.1597 -3.1129,-1.1597 -1.3441,0 -2.3172,0.3359 -3.141,1.223 -1.191,1.25 -1.4059,3.6289 -1.4059,6.9219 0,3.3238 0.2149,5.6711 1.375,6.925 0.8239,0.8832 1.8278,1.2191 3.1129,1.2191 1.277,0 2.2852,-0.3359 3.109,-1.2191 1.1918,-1.2539 1.4031,-3.6012 1.4031,-7.5039 H 56.598"
       style="fill:#3a4a54;fill-opacity:1;fill-rule:nonzero;stroke:none;stroke-width:0.1"
       id="path22" /><path
       d="m 67.9102,41.3871 c -0.8832,0.7301 -1.3711,1.8899 -1.3711,3.5348 v 9.3672 h -1.8012 v 1.9218 h 1.8012 v 4.3282 h 2.473 v -4.3282 h 2.441 v -1.9218 h -2.441 V 45.016 c 0,-1.6801 0.8828,-2.3789 2.5309,-2.3789 v -2.2269 c -1.402,0 -2.625,0.1207 -3.6328,0.9769"
       style="fill:#3a4a54;fill-opacity:1;fill-rule:nonzero;stroke:none;stroke-width:0.1"
       id="path24" /><path
       d="m 79.2578,53.5859 c -0.3047,0.3942 -0.7308,0.6411 -1.4027,0.6411 -0.6711,0 -1.066,-0.2469 -1.375,-0.6411 -0.484,-0.5781 -0.609,-1.707 -0.609,-3.9961 h 3.9961 c 0,2.2891 -0.1211,3.418 -0.6094,3.9961 z m -3.3867,-5.8558 c 0,-2.5031 0.0937,-3.9641 0.6449,-4.668 0.2731,-0.398 0.761,-0.6711 1.3981,-0.6711 0.5507,0 1.0078,0.152 1.4058,0.6129 0.3949,0.457 0.5199,1.066 0.5199,1.8281 h 2.4692 c -0.032,-1.4648 -0.3988,-2.5621 -1.282,-3.5082 -0.761,-0.7929 -1.8282,-1.1597 -3.1129,-1.1597 -1.3403,0 -2.3161,0.3359 -3.1411,1.223 -1.1871,1.25 -1.4019,3.6289 -1.4019,6.9219 0,3.3238 0.2148,5.6711 1.3711,6.925 0.8238,0.8832 1.8316,1.2191 3.1129,1.2191 1.282,0 2.2898,-0.3359 3.114,-1.2191 1.1868,-1.2539 1.402,-3.6012 1.402,-7.5039 h -6.5"
       style="fill:#3a4a54;fill-opacity:1;fill-rule:nonzero;stroke:none;stroke-width:0.1"
       id="path26" /><path
       d="m 91.457,40.4102 v 11.6207 c 0,1.4339 -0.8519,2.164 -1.891,2.164 -1.0351,0 -1.859,-0.7301 -1.859,-2.164 V 40.4102 h -2.473 v 15.8007 h 2.3789 v -1.223 c 0.2152,0.3672 0.6449,0.766 0.9769,0.9769 0.4883,0.3051 1.0661,0.4883 1.7071,0.4883 1.191,0 2.0152,-0.398 2.6871,-1.1601 0.641,-0.6989 0.9461,-1.5551 0.9461,-3.2621 V 40.4102 H 91.457"
       style="fill:#3a4a54;fill-opacity:1;fill-rule:nonzero;stroke:none;stroke-width:0.1"
       id="path28" /><path
       d="m 96.277,40.4102 v 1.891 l 4.969,11.7148 h -4.637 v 2.1949 h 7.383 v -1.891 L 99.023,42.6371 h 4.969 v -2.2269 h -7.715"
       style="fill:#3a4a54;fill-opacity:1;fill-rule:nonzero;stroke:none;stroke-width:0.1"
       id="path30" /><path
       d="m 105.457,40.4102 v 1.891 l 4.973,11.7148 h -4.637 v 2.1949 h 7.383 v -1.891 l -4.973,-11.6828 h 4.973 v -2.2269 h -7.719"
       style="fill:#3a4a54;fill-opacity:1;fill-rule:nonzero;stroke:none;stroke-width:0.1"
       id="path32" /><path
       d="m 121.012,53.5859 c -0.305,0.3942 -0.735,0.6411 -1.403,0.6411 -0.671,0 -1.07,-0.2469 -1.375,-0.6411 -0.488,-0.5781 -0.609,-1.707 -0.609,-3.9961 h 3.996 c 0,2.2891 -0.121,3.418 -0.609,3.9961 z m -3.387,-5.8558 c 0,-2.5031 0.094,-3.9641 0.641,-4.668 0.273,-0.398 0.761,-0.6711 1.402,-0.6711 0.551,0 1.008,0.152 1.402,0.6129 0.399,0.457 0.52,1.066 0.52,1.8281 h 2.472 c -0.031,-1.4648 -0.398,-2.5621 -1.281,-3.5082 -0.761,-0.7929 -1.832,-1.1597 -3.113,-1.1597 -1.34,0 -2.316,0.3359 -3.141,1.223 -1.187,1.25 -1.402,3.6289 -1.402,6.9219 0,3.3238 0.215,5.6711 1.371,6.925 0.824,0.8832 1.832,1.2191 3.113,1.2191 1.282,0 2.286,-0.3359 3.11,-1.2191 1.191,-1.2539 1.402,-3.6012 1.402,-7.5039 h -6.496"
       style="fill:#3a4a54;fill-opacity:1;fill-rule:nonzero;stroke:none;stroke-width:0.1"
       id="path34" /><path
       d="m 133.211,40.4102 v 11.6207 c 0,1.4339 -0.856,2.164 -1.891,2.164 -1.039,0 -1.859,-0.7301 -1.859,-2.164 V 40.4102 h -2.473 v 15.8007 h 2.379 v -1.223 c 0.215,0.3672 0.641,0.766 0.977,0.9769 0.488,0.3051 1.066,0.4883 1.707,0.4883 1.191,0 2.015,-0.398 2.683,-1.1601 0.645,-0.6989 0.95,-1.5551 0.95,-3.2621 V 40.4102 h -2.473"
       style="fill:#3a4a54;fill-opacity:1;fill-rule:nonzero;stroke:none;stroke-width:0.1"
       id="path36" /><path
       d="m 140.988,41.3871 c -0.883,0.7301 -1.375,1.8899 -1.375,3.5348 v 9.3672 h -1.797 v 1.9218 h 1.797 v 4.3282 h 2.473 v -4.3282 h 2.441 v -1.9218 h -2.441 V 45.016 c 0,-1.6801 0.887,-2.3789 2.531,-2.3789 v -2.2269 c -1.402,0 -2.625,0.1207 -3.629,0.9769"
       style="fill:#3a4a54;fill-opacity:1;fill-rule:nonzero;stroke:none;stroke-width:0.1"
       id="path38" /><path
       d="m 152.305,54.0738 c -1.68,0 -2.867,-1.0968 -2.867,-2.8976 v -10.766 h -2.473 v 15.8007 h 2.379 v -1.68 c 0.246,0.43 0.703,0.8562 1.097,1.1293 0.735,0.5199 1.586,0.7929 2.594,0.7929 v -2.3793 h -0.73"
       style="fill:#3a4a54;fill-opacity:1;fill-rule:nonzero;stroke:none;stroke-width:0.1"
       id="path40" /><path
       d="m 161.453,40.4102 v 1.2187 c -0.215,-0.3629 -0.641,-0.7617 -0.976,-0.9769 -0.489,-0.304 -1.067,-0.4879 -1.707,-0.4879 -1.192,0 -2.012,0.398 -2.684,1.1597 -0.641,0.6992 -0.945,1.5551 -0.945,3.266 v 11.6211 h 2.468 V 44.5898 c 0,-1.4648 0.856,-2.1988 1.891,-2.1988 1.039,0 1.859,0.734 1.859,2.1988 v 11.6211 h 2.473 V 40.4102 h -2.379"
       style="fill:#3a4a54;fill-opacity:1;fill-rule:nonzero;stroke:none;stroke-width:0.1"
       id="path42" /><path
       d="m 179.723,40.4102 v 11.6207 c 0,1.4339 -0.825,2.164 -1.864,2.164 -1.035,0 -1.859,-0.7301 -1.859,-2.164 V 40.4102 h -2.469 v 11.6207 c 0,1.4339 -0.855,2.164 -1.89,2.164 -1.039,0 -1.864,-0.7301 -1.864,-2.164 V 40.4102 h -2.468 v 15.8007 h 2.379 v -1.223 c 0.21,0.3672 0.64,0.766 0.976,0.9769 0.488,0.3051 1.066,0.4883 1.707,0.4883 1.223,0 2.379,-0.6722 3.02,-1.648 0.336,0.4289 0.793,0.8859 1.25,1.1597 0.488,0.3051 1.218,0.4883 1.8,0.4883 1.371,0 2.164,-0.398 2.836,-1.1601 0.641,-0.6989 0.914,-1.5551 0.914,-3.2621 V 40.4102 h -2.468"
       style="fill:#3a4a54;fill-opacity:1;fill-rule:nonzero;stroke:none;stroke-width:0.1"
       id="path44" /><path
       d="M 194.332,54.2891 V 40.4102 h -2.473 v 13.8789 h -1.797 v 1.9218 h 1.797 v 1.5231 c 0,1.6488 0.489,2.7781 1.371,3.5082 0.981,0.8238 2.2,1.0078 3.54,1.0078 v -2.227 c -1.618,0 -2.438,-0.7929 -2.438,-2.3781 v -1.434 h 2.438 v -1.9218 h -2.438"
       style="fill:#3a4a54;fill-opacity:1;fill-rule:nonzero;stroke:none;stroke-width:0.1"
       id="path46" /><path
       d="m 204.395,61.2422 h 2.47227 v -2.5 H 204.395 Z m -4.79,0 h 2.50391 v -2.5 H 199.605 Z m 5.614,-20.832 v 1.2187 c -0.211,-0.3629 -0.641,-0.7617 -0.977,-0.9769 -0.484,-0.304 -1.066,-0.4879 -1.707,-0.4879 -1.187,0 -2.012,0.398 -2.683,1.1597 -0.641,0.6992 -0.946,1.5551 -0.946,3.266 v 11.6211 h 2.469 V 44.5898 c 0,-1.4648 0.855,-2.1988 1.895,-2.1988 1.035,0 1.859,0.734 1.859,2.1988 v 11.6211 h 2.469 V 40.4102 h -2.379"
       style="fill:#3a4a54;fill-opacity:1;fill-rule:nonzero;stroke:none;stroke-width:0.1"
       id="path48" /><path
       d="m 216.41,54.0738 c -1.676,0 -2.863,-1.0968 -2.863,-2.8976 v -10.766 h -2.473 v 15.8007 h 2.379 v -1.68 c 0.246,0.43 0.703,0.8562 1.098,1.1293 0.734,0.5199 1.586,0.7929 2.594,0.7929 v -2.3793 h -0.735"
       style="fill:#3a4a54;fill-opacity:1;fill-rule:nonzero;stroke:none;stroke-width:0.1"
       id="path50" /><path
       d="m 0.0511719,6.41016 h 2.625 v 21.7188 h -2.625 z"
       style="fill:#3a4a54;fill-opacity:1;fill-rule:nonzero;stroke:none;stroke-width:0.1"
       id="path52" /><path
       d="M 12.6172,6.41016 V 18.0309 c 0,1.4339 -0.8512,2.164 -1.8902,2.164 -1.03911,0 -1.86411,-0.7301 -1.86411,-2.164 V 6.41016 H 6.39492 V 22.2109 h 2.37813 v -1.223 c 0.21484,0.3672 0.64101,0.766 0.97695,0.9769 0.4879,0.3051 1.066,0.4883 1.707,0.4883 1.191,0 2.016,-0.3941 2.6879,-1.1601 0.636,-0.6989 0.9449,-1.5551 0.9449,-3.2621 V 6.41016 h -2.4726"
       style="fill:#3a4a54;fill-opacity:1;fill-rule:nonzero;stroke:none;stroke-width:0.1"
       id="path54" /><path
       d="M 21.4922,20.2891 V 6.41016 H 19.023 V 20.2891 h -1.8 v 1.9218 h 1.8 v 1.5231 c 0,1.6492 0.4891,2.7781 1.3719,3.5082 0.9762,0.8238 2.1949,1.0078 3.5391,1.0078 v -2.227 c -1.618,0 -2.4418,-0.7929 -2.4418,-2.3781 v -1.434 h 2.4418 v -1.9218 h -2.4418"
       style="fill:#3a4a54;fill-opacity:1;fill-rule:nonzero;stroke:none;stroke-width:0.1"
       id="path56" /><path
       d="m 31.2809,19.5551 c -0.3039,0.425 -0.82,0.6719 -1.402,0.6719 -0.5777,0 -1.0668,-0.2469 -1.3711,-0.6719 -0.5816,-0.793 -0.6406,-2.4102 -0.6406,-5.2461 0,-2.836 0.059,-4.45392 0.6406,-5.24689 0.3043,-0.425 0.7934,-0.67109 1.3711,-0.67109 0.582,0 1.0981,0.24609 1.402,0.67109 0.5781,0.79297 0.614,2.41089 0.614,5.24689 0,2.8359 -0.0359,4.4531 -0.614,5.2461 z M 33.234,7.62891 c -0.793,-1.0668 -1.9531,-1.46485 -3.3551,-1.46485 -1.4019,0 -2.5309,0.39805 -3.3238,1.46485 -0.977,1.25 -1.1602,3.47619 -1.1602,6.68009 0,3.2031 0.1832,5.4289 1.1602,6.6789 0.7929,1.0711 1.9219,1.4652 3.3238,1.4652 1.402,0 2.5621,-0.3941 3.3551,-1.4652 0.9769,-1.25 1.1289,-3.4758 1.1289,-6.6789 0,-3.2039 -0.152,-5.43009 -1.1289,-6.68009"
       style="fill:#3a4a54;fill-opacity:1;fill-rule:nonzero;stroke:none;stroke-width:0.1"
       id="path58" /><path
       d="m 42.6879,20.0738 c -1.6758,0 -2.868,-1.0968 -2.868,-2.8976 V 6.41016 H 37.352 V 22.2109 h 2.3781 v -1.68 c 0.2429,0.43 0.7,0.8562 1.098,1.1293 0.7309,0.5199 1.586,0.7929 2.5938,0.7929 v -2.3793 h -0.734"
       style="fill:#3a4a54;fill-opacity:1;fill-rule:nonzero;stroke:none;stroke-width:0.1"
       id="path60" /><path
       d="M 58.0621,6.41016 V 18.0309 c 0,1.4339 -0.8242,2.164 -1.8633,2.164 -1.0347,0 -1.859,-0.7301 -1.859,-2.164 V 6.41016 H 51.8672 V 18.0309 c 0,1.4339 -0.8512,2.164 -1.8902,2.164 -1.036,0 -1.8598,-0.7301 -1.8598,-2.164 V 6.41016 H 45.648 V 22.2109 h 2.379 v -1.223 c 0.2109,0.3672 0.641,0.766 0.9769,0.9769 0.484,0.3051 1.066,0.4883 1.707,0.4883 1.2192,0 2.3789,-0.6722 3.0192,-1.6441 0.3359,0.425 0.7929,0.882 1.25,1.1558 0.489,0.3051 1.2187,0.4883 1.8008,0.4883 1.3711,0 2.164,-0.3941 2.8363,-1.1601 0.6406,-0.6989 0.9137,-1.5551 0.9137,-3.2621 V 6.41016 h -2.4688"
       style="fill:#3a4a54;fill-opacity:1;fill-rule:nonzero;stroke:none;stroke-width:0.1"
       id="path62" /><path
       d="m 69.527,13.7301 h -1.402 c -0.7621,0 -1.2809,-0.125 -1.7699,-0.5821 -0.4571,-0.425 -0.7301,-1.3082 -0.7301,-2.164 0,-1.64806 0.641,-2.65197 1.9219,-2.65197 1.1871,0 1.9801,1.00391 1.9801,2.46917 z M 69.652,6.41016 V 7.81211 C 69.4059,7.38711 69.0391,6.98789 68.734,6.74609 68.2461,6.37891 67.7301,6.16406 66.875,6.16406 c -1.1602,0 -1.9801,0.3668 -2.7148,1.19102 -0.609,0.7039 -1.0043,1.89101 -1.0043,3.53982 0,1.4602 0.4851,2.7461 1.3992,3.566 0.7929,0.7032 1.7109,1.0661 3.3551,1.0661 h 1.6168 v 2.5039 c 0,1.4652 -0.636,2.2582 -1.859,2.2582 -0.5508,0 -0.9141,-0.2153 -1.2192,-0.5192 -0.4258,-0.4578 -0.5816,-0.9769 -0.5816,-1.832 H 63.398 c 0,1.2223 0.2739,2.4101 1.2192,3.3551 0.7027,0.7031 1.8316,1.1601 3.0508,1.1601 1.2808,0 2.348,-0.3672 3.082,-1.098 0.7621,-0.793 1.25,-1.859 1.25,-3.4762 V 6.41016 h -2.348"
       style="fill:#3a4a54;fill-opacity:1;fill-rule:nonzero;stroke:none;stroke-width:0.1"
       id="path64" /><path
       d="M 77.3051,7.38711 C 76.4219,8.11719 75.934,9.27695 75.934,10.9219 v 9.3672 h -1.8012 v 1.9218 h 1.8012 v 4.3282 h 2.4719 v -4.3282 h 2.4382 V 20.2891 H 78.4059 V 11.016 c 0,-1.68006 0.8832,-2.37889 2.5281,-2.37889 V 6.41016 c -1.4031,0 -2.6219,0.1207 -3.6289,0.97695"
       style="fill:#3a4a54;fill-opacity:1;fill-rule:nonzero;stroke:none;stroke-width:0.1"
       id="path66" /><path
       d="m 83.2809,22.2109 h 2.47305 V 6.4101 H 83.2809 Z m -0.211,2.8051 v 2.8672 h 2.8992 V 25.016 h -2.8992"
       style="fill:#3a4a54;fill-opacity:1;fill-rule:nonzero;stroke:none;stroke-width:0.1"
       id="path68" /><path
       d="m 94.6289,19.5551 c -0.3051,0.425 -0.8238,0.6719 -1.4019,0.6719 -0.579,0 -1.0668,-0.2469 -1.3719,-0.6719 -0.5821,-0.793 -0.6403,-2.4102 -0.6403,-5.2461 0,-2.836 0.0582,-4.45392 0.6403,-5.24689 0.3051,-0.425 0.7929,-0.67109 1.3719,-0.67109 0.5781,0 1.0968,0.24609 1.4019,0.67109 0.582,0.79297 0.609,2.41089 0.609,5.24689 0,2.8359 -0.027,4.4531 -0.609,5.2461 z M 96.582,7.62891 c -0.7929,-1.0668 -1.9531,-1.46485 -3.355,-1.46485 -1.4032,0 -2.5321,0.39805 -3.325,1.46485 -0.9758,1.25 -1.1598,3.47619 -1.1598,6.68009 0,3.2031 0.184,5.4289 1.1598,6.6789 0.7929,1.0711 1.9218,1.4652 3.325,1.4652 1.4019,0 2.5621,-0.3941 3.355,-1.4652 0.977,-1.25 1.1289,-3.4758 1.1289,-6.6789 0,-3.2039 -0.1519,-5.43009 -1.1289,-6.68009"
       style="fill:#3a4a54;fill-opacity:1;fill-rule:nonzero;stroke:none;stroke-width:0.1"
       id="path70" /><path
       d="M 106.922,6.41016 V 18.0309 c 0,1.4339 -0.856,2.164 -1.895,2.164 -1.035,0 -1.859,-0.7301 -1.859,-2.164 V 6.41016 h -2.473 V 22.2109 h 2.383 v -1.223 c 0.211,0.3672 0.641,0.766 0.977,0.9769 0.484,0.3051 1.066,0.4883 1.707,0.4883 1.187,0 2.011,-0.3941 2.683,-1.1601 0.641,-0.6989 0.946,-1.5551 0.946,-3.2621 V 6.41016 h -2.469"
       style="fill:#3a4a54;fill-opacity:1;fill-rule:nonzero;stroke:none;stroke-width:0.1"
       id="path72" /><path
       d="m 119.672,7.41797 c -0.856,-0.88711 -1.953,-1.25391 -3.234,-1.25391 -1.282,0 -2.411,0.43008 -3.172,1.22305 -0.918,0.94492 -1.344,2.04297 -1.344,3.47579 h 2.441 c 0,-0.8238 0.211,-1.43282 0.668,-1.92188 0.367,-0.36719 0.918,-0.55 1.407,-0.55 0.64,0 1.097,0.18281 1.492,0.58203 0.367,0.36289 0.609,0.94492 0.609,1.58595 0,0.5461 -0.121,1.0031 -0.394,1.4332 -0.305,0.4566 -0.762,0.793 -1.403,1.1289 l -2.047,1.0348 c -1.035,0.5203 -1.765,1.1601 -2.164,1.832 -0.336,0.5781 -0.488,1.25 -0.488,2.0742 0,1.3719 0.519,2.4109 1.312,3.2039 0.793,0.793 1.891,1.1871 3.114,1.1871 1.25,0 2.316,-0.3672 3.078,-1.1293 0.824,-0.7929 1.281,-1.9218 1.281,-3.4758 h -2.437 c 0,0.9141 -0.188,1.4641 -0.582,1.8899 -0.368,0.3992 -0.856,0.5512 -1.34,0.5512 -0.582,0 -1.039,-0.184 -1.375,-0.5192 -0.399,-0.3988 -0.578,-0.9461 -0.578,-1.5277 0,-0.457 0.089,-0.8203 0.273,-1.1563 0.215,-0.3668 0.672,-0.7339 1.313,-1.039 l 2.011,-1.0078 c 1.071,-0.5161 1.77,-1.0661 2.227,-1.7969 0.43,-0.6402 0.672,-1.5231 0.672,-2.5313 0,-1.40192 -0.547,-2.50387 -1.34,-3.29293"
       style="fill:#3a4a54;fill-opacity:1;fill-rule:nonzero;stroke:none;stroke-width:0.1"
       id="path74" /><path
       d="m 125.645,7.38711 c -0.883,0.73008 -1.372,1.88984 -1.372,3.53479 v 9.3672 h -1.796 v 1.9218 h 1.796 v 4.3282 h 2.473 v -4.3282 h 2.442 v -1.9218 h -2.442 V 11.016 c 0,-1.68006 0.883,-2.37889 2.531,-2.37889 V 6.41016 c -1.406,0 -2.625,0.1207 -3.632,0.97695"
       style="fill:#3a4a54;fill-opacity:1;fill-rule:nonzero;stroke:none;stroke-width:0.1"
       id="path76" /><path
       d="m 136.992,19.5859 c -0.304,0.3942 -0.73,0.6411 -1.402,0.6411 -0.672,0 -1.067,-0.2469 -1.371,-0.6411 -0.489,-0.5781 -0.614,-1.707 -0.614,-3.9961 h 3.997 c 0,2.2891 -0.122,3.418 -0.61,3.9961 z m -3.387,-5.8558 c 0,-2.5031 0.094,-3.96408 0.641,-4.66799 0.277,-0.39414 0.766,-0.67109 1.402,-0.67109 0.551,0 1.008,0.15195 1.407,0.60898 0.394,0.45703 0.515,1.0699 0.515,1.832 h 2.473 C 140.012,9.36719 139.645,8.26992 138.762,7.32383 138,6.53086 136.934,6.16406 135.648,6.16406 c -1.339,0 -2.316,0.33594 -3.14,1.22305 -1.188,1.25 -1.403,3.62889 -1.403,6.92189 0,3.3238 0.215,5.6711 1.375,6.925 0.821,0.8832 1.829,1.2191 3.11,1.2191 1.281,0 2.289,-0.3359 3.109,-1.2191 1.192,-1.2539 1.406,-3.6012 1.406,-7.5039 h -6.5"
       style="fill:#3a4a54;fill-opacity:1;fill-rule:nonzero;stroke:none;stroke-width:0.1"
       id="path78" /><path
       d="M 150.047,7.26602 C 149.285,6.5 148.219,6.16406 146.938,6.16406 c -1.344,0 -2.536,0.39805 -3.329,1.46485 -0.972,1.25 -1.16,3.50819 -1.16,6.68009 0,3.2031 0.188,5.4289 1.16,6.6789 0.793,1.0711 1.985,1.4652 3.329,1.4652 1.281,0 2.253,-0.273 3.078,-1.066 0.976,-0.9141 1.218,-2.2269 1.281,-3.5711 h -2.473 c 0,0.641 -0.058,1.3129 -0.484,1.832 -0.336,0.395 -0.766,0.579 -1.375,0.579 -0.578,0 -1.098,-0.2469 -1.403,-0.6719 -0.578,-0.7621 -0.609,-2.3789 -0.609,-5.2461 0,-2.836 0.031,-4.45392 0.609,-5.24689 0.305,-0.425 0.825,-0.67109 1.403,-0.67109 0.551,0 1.039,0.21406 1.344,0.58203 0.425,0.48398 0.515,1.12895 0.515,1.85895 h 2.473 c -0.063,-1.49606 -0.426,-2.71481 -1.25,-3.56598"
       style="fill:#3a4a54;fill-opacity:1;fill-rule:nonzero;stroke:none;stroke-width:0.1"
       id="path80" /><path
       d="M 160.23,6.41016 V 18.0309 c 0,1.4652 -0.851,2.1961 -1.886,2.1961 -1.039,0 -1.864,-0.7309 -1.864,-2.1961 V 6.41016 h -2.468 V 28.1289 h 2.468 V 21.082 c 0.215,0.3321 0.582,0.6989 0.883,0.8828 0.492,0.3051 1.071,0.4883 1.711,0.4883 1.188,0 2.012,-0.3941 2.684,-1.1601 0.64,-0.6989 0.945,-1.5551 0.945,-3.2621 V 6.41016 h -2.473"
       style="fill:#3a4a54;fill-opacity:1;fill-rule:nonzero;stroke:none;stroke-width:0.1"
       id="path82" /><path
       d="M 172.281,6.41016 V 18.0309 c 0,1.4339 -0.855,2.164 -1.89,2.164 -1.039,0 -1.864,-0.7301 -1.864,-2.164 V 6.41016 h -2.468 V 22.2109 h 2.379 v -1.223 c 0.21,0.3672 0.64,0.766 0.976,0.9769 0.488,0.3051 1.066,0.4883 1.707,0.4883 1.191,0 2.016,-0.3941 2.684,-1.1601 0.64,-0.6989 0.945,-1.5551 0.945,-3.2621 V 6.41016 h -2.469"
       style="fill:#3a4a54;fill-opacity:1;fill-rule:nonzero;stroke:none;stroke-width:0.1"
       id="path84" /><path
       d="m 183.504,19.5551 c -0.305,0.425 -0.824,0.6719 -1.402,0.6719 -0.582,0 -1.071,-0.2469 -1.372,-0.6719 -0.582,-0.793 -0.64,-2.4102 -0.64,-5.2461 0,-2.836 0.058,-4.45392 0.64,-5.24689 0.301,-0.425 0.79,-0.67109 1.372,-0.67109 0.578,0 1.097,0.24609 1.402,0.67109 0.578,0.79297 0.609,2.41089 0.609,5.24689 0,2.8359 -0.031,4.4531 -0.609,5.2461 z m 1.953,-11.92619 c -0.793,-1.0668 -1.953,-1.46485 -3.355,-1.46485 -1.407,0 -2.532,0.39805 -3.325,1.46485 -0.976,1.25 -1.16,3.47619 -1.16,6.68009 0,3.2031 0.184,5.4289 1.16,6.6789 0.793,1.0711 1.918,1.4652 3.325,1.4652 1.402,0 2.562,-0.3941 3.355,-1.4652 0.977,-1.25 1.129,-3.4758 1.129,-6.6789 0,-3.2039 -0.152,-5.43009 -1.129,-6.68009"
       style="fill:#3a4a54;fill-opacity:1;fill-rule:nonzero;stroke:none;stroke-width:0.1"
       id="path86" /><path
       d="M 190.855,7.38711 C 190,8.08594 189.449,9.18398 189.449,10.9219 v 17.207 h 2.473 V 11.016 c 0,-1.55897 0.73,-2.37889 2.348,-2.37889 V 6.41016 c -1.34,0 -2.469,0.18398 -3.415,0.97695"
       style="fill:#3a4a54;fill-opacity:1;fill-rule:nonzero;stroke:none;stroke-width:0.1"
       id="path88" /><path
       d="m 201.926,19.5551 c -0.309,0.425 -0.824,0.6719 -1.406,0.6719 -0.579,0 -1.067,-0.2469 -1.372,-0.6719 -0.578,-0.793 -0.64,-2.4102 -0.64,-5.2461 0,-2.836 0.062,-4.45392 0.64,-5.24689 0.305,-0.425 0.793,-0.67109 1.372,-0.67109 0.582,0 1.097,0.24609 1.406,0.67109 0.578,0.79297 0.609,2.41089 0.609,5.24689 0,2.8359 -0.031,4.4531 -0.609,5.2461 z m 1.953,-11.92619 c -0.793,-1.0668 -1.953,-1.46485 -3.359,-1.46485 -1.403,0 -2.532,0.39805 -3.325,1.46485 -0.972,1.25 -1.156,3.47619 -1.156,6.68009 0,3.2031 0.184,5.4289 1.156,6.6789 0.793,1.0711 1.922,1.4652 3.325,1.4652 1.406,0 2.566,-0.3941 3.359,-1.4652 0.973,-1.25 1.129,-3.4758 1.129,-6.6789 0,-3.2039 -0.156,-5.43009 -1.129,-6.68009"
       style="fill:#3a4a54;fill-opacity:1;fill-rule:nonzero;stroke:none;stroke-width:0.1"
       id="path90" /><path
       d="m 213.852,17.9379 c 0,0.8551 -0.215,1.4062 -0.614,1.8 -0.336,0.3359 -0.761,0.4891 -1.277,0.4891 -0.582,0 -1.039,-0.2469 -1.344,-0.6411 -0.551,-0.6718 -0.64,-1.891 -0.64,-4.9097 0,-3.0203 0.089,-4.2383 0.64,-4.94222 0.305,-0.36679 0.762,-0.63984 1.344,-0.63984 0.516,0 0.941,0.18281 1.277,0.51875 0.399,0.39491 0.614,0.94611 0.614,1.79731 z M 216.32,6.04297 c 0,-2.34805 -0.394,-3.50781 -1.281,-4.42188 -0.73,-0.766012 -1.891,-1.223043 -3.109,-1.223043 -1.223,0 -2.379,0.367969 -3.172,1.128903 -0.887,0.88711 -1.192,2.04297 -1.192,3.41797 h 2.469 c 0,-0.76094 0.094,-1.40195 0.52,-1.88984 0.336,-0.33594 0.824,-0.51992 1.343,-0.51992 0.579,0 1.036,0.24179 1.34,0.57773 0.457,0.48906 0.614,1.31328 0.614,2.77813 v 2.41015 c -0.247,-0.33633 -0.551,-0.67226 -0.887,-0.8832 -0.457,-0.33594 -1.004,-0.48789 -1.649,-0.48789 -1.066,0 -1.921,0.36289 -2.589,1.15586 -1.008,1.1289 -1.25,2.89806 -1.25,6.62106 0,3.7192 0.242,5.4571 1.25,6.6168 0.668,0.7621 1.492,1.1293 2.589,1.1293 0.672,0 1.223,-0.1519 1.711,-0.4883 0.336,-0.2109 0.668,-0.5507 0.883,-0.8558 v 1.1019 h 2.41 V 6.04297"
       style="fill:#3a4a54;fill-opacity:1;fill-rule:nonzero;stroke:none;stroke-width:0.1"
       id="path92" /><path
       d="m 219.797,22.2109 h 2.47305 V 6.4101 H 219.797 Z m -0.211,2.8051 v 2.8672 h 2.894 V 25.016 h -2.894"
       style="fill:#3a4a54;fill-opacity:1;fill-rule:nonzero;stroke:none;stroke-width:0.1"
       id="path94" /><path
       d="m 231.113,19.5859 c -0.304,0.3942 -0.73,0.6411 -1.402,0.6411 -0.672,0 -1.066,-0.2469 -1.375,-0.6411 -0.484,-0.5781 -0.609,-1.707 -0.609,-3.9961 h 3.996 c 0,2.2891 -0.121,3.418 -0.61,3.9961 z m -3.386,-5.8558 c 0,-2.5031 0.089,-3.96408 0.64,-4.66799 0.278,-0.39414 0.762,-0.67109 1.403,-0.67109 0.55,0 1.007,0.15195 1.406,0.60898 0.394,0.45703 0.515,1.0699 0.515,1.832 h 2.473 c -0.031,-1.46481 -0.398,-2.56208 -1.281,-3.50817 -0.766,-0.79297 -1.832,-1.15977 -3.113,-1.15977 -1.34,0 -2.317,0.33594 -3.141,1.22305 -1.191,1.25 -1.402,3.62889 -1.402,6.92189 0,3.3238 0.211,5.6711 1.371,6.925 0.824,0.8832 1.832,1.2191 3.113,1.2191 1.281,0 2.285,-0.3359 3.109,-1.2191 1.192,-1.2539 1.407,-3.6012 1.407,-7.5039 h -6.5"
       style="fill:#3a4a54;fill-opacity:1;fill-rule:nonzero;stroke:none;stroke-width:0.1"
       id="path96" /><path
       d="M 40.984,80.5121 22.8672,112.586 13.7621,101.695 V 80.5121 H 0 V 151 H 13.7621 V 120.309 L 38.609,151 H 55.3398 L 31.977,122.98 57.023,80.5121 H 40.984"
       style="fill:#3a4a54;fill-opacity:1;fill-rule:nonzero;stroke:none;stroke-width:0.1"
       id="path98" /><path
       d="M 62.4691,80.5121 H 76.2269 V 151 H 62.4691 Z"
       style="fill:#3a4a54;fill-opacity:1;fill-rule:nonzero;stroke:none;stroke-width:0.1"
       id="path100" /><path
       d="M 116.223,138.723 V 80.5121 H 102.465 V 138.723 H 84.0469 V 151 h 50.5901 v -12.277 h -18.414"
       style="fill:#3a4a54;fill-opacity:1;fill-rule:nonzero;stroke:none;stroke-width:0.1"
       id="path102" /><path
       d="M 142.461,80.5121 V 151 h 46.43 v -12.277 h -32.672 v -16.532 h 27.82 v -12.277 h -27.82 V 92.7891 h 32.672 v -12.277 h -46.43"
       style="fill:#3a4a54;fill-opacity:1;fill-rule:nonzero;stroke:none;stroke-width:0.1"
       id="path104" /><path
       d="m 262.457,150.996 h -33.371 l 25.16,-25.156 -25.152,-25.152 33.367,-0.004 -0.004,50.312"
       style="fill:#3a4a54;fill-opacity:1;fill-rule:nonzero;stroke:none;stroke-width:0.1"
       id="path106" /><path
       d="m 212.09,150.996 v -50.312 l 25.156,25.16 z"
       style="fill:#7dad14;fill-opacity:1;fill-rule:nonzero;stroke:none;stroke-width:0.1"
       id="path108" /></g></svg>
